<svg width="1783" height="993" viewBox="0 0 1783 993" fill="none" xmlns="http://www.w3.org/2000/svg">
<path d="M118.26 18C118.26 9.16347 125.424 2 134.26 2H1648.74C1657.58 2 1664.74 9.16344 1664.74 18V808.328C1664.74 817.165 1657.58 824.328 1648.74 824.328H134.26C125.424 824.328 118.26 817.165 118.26 808.328V18Z" fill="black" stroke="#898989" stroke-width="3"/>
<rect x="172.842" y="88.4048" width="1437.32" height="659.414" rx="10" fill="white"/>
<path d="M120.055 780.953H1662.94V810.88C1662.94 817.507 1657.57 822.88 1650.94 822.88H132.055C125.428 822.88 120.055 817.507 120.055 810.88V780.953Z" fill="#444444"/>
<path d="M1665.26 816.57C1666.62 816.57 1667.88 817.257 1668.62 818.396L1783 995H0L125.375 818.256C126.125 817.198 127.341 816.57 128.638 816.57H227.424V826.767H1555.58V816.57H1665.26Z" fill="#7C7C7C"/>
<path d="M234.005 895.836C234.755 894.777 235.972 894.148 237.269 894.148H1545.76C1547.19 894.148 1548.52 894.919 1549.23 896.166L1605.61 995H163.745L234.005 895.836Z" fill="#717171"/>
</svg>
