<svg width="32" height="36" viewBox="0 0 32 36" fill="none" xmlns="http://www.w3.org/2000/svg">
<path d="M30.9991 12.2791C30.8245 12.3794 26.6676 14.4956 26.6676 19.1877C26.8635 24.5387 31.9134 26.4153 32 26.4153C31.9134 26.5156 31.2376 28.9716 29.2358 31.5462C27.6472 33.764 25.8839 36 23.2064 36C20.6594 36 19.7451 34.5219 16.8063 34.5219C13.6504 34.5219 12.7574 36 10.341 36C7.66347 36 5.76959 33.6442 4.09434 31.4473C1.91793 28.5718 0.0680636 24.0595 0.00275735 19.7268C-0.0412534 17.4309 0.438605 15.1741 1.65671 13.2571C3.37597 10.581 6.44536 8.76429 9.79728 8.70438C12.3655 8.62495 14.6512 10.3218 16.2186 10.3218C17.7206 10.3218 20.5288 8.70438 23.7061 8.70438C25.0775 8.70569 28.7347 9.08465 30.9991 12.2791ZM16.0014 8.24598C15.5442 6.14933 16.8063 4.05267 17.9819 2.71524C19.4839 1.09782 21.8562 0 23.902 0C24.0326 2.09666 23.2049 4.15294 21.7256 5.65056C20.3982 7.26798 18.1125 8.4856 16.0014 8.24598Z" fill="white"/>
</svg>
