<svg width="201" height="200" viewBox="0 0 201 200" fill="none" xmlns="http://www.w3.org/2000/svg">
<circle cx="100.5" cy="100" r="99.5" fill="black" stroke="white"/>
<mask id="path-2-outside-1_87_61" maskUnits="userSpaceOnUse" x="65.3334" y="45.75" width="80" height="110" fill="black">
<rect fill="white" x="65.3334" y="45.75" width="80" height="110"/>
<path d="M67.1934 55.65C67.1 53.41 67.2867 51.9633 67.7534 51.31C68.3134 50.5633 69.5734 49.9567 71.5334 49.49C73.7734 49.0233 75.8267 48.65 77.6934 48.37C79.56 47.9967 81.3334 47.7167 83.0134 47.53C84.7867 47.3433 86.5134 47.2033 88.1934 47.11C89.8734 47.0167 91.6467 46.9233 93.5134 46.83C98.8334 46.6433 104.013 46.97 109.053 47.81C114.093 48.5567 118.62 50.0033 122.633 52.15C126.647 54.2033 129.913 57.05 132.433 60.69C135.047 64.2367 136.587 68.7167 137.053 74.13C137.333 78.33 136.773 82.25 135.373 85.89C133.973 89.4367 131.267 92.3767 127.253 94.71C129.867 95.6433 132.2 97.0433 134.253 98.91C136.307 100.683 138.033 102.783 139.433 105.21C140.927 107.543 142.047 110.11 142.793 112.91C143.54 115.71 143.96 118.603 144.053 121.59C144.147 126.537 143.26 130.83 141.393 134.47C139.62 138.017 137.1 141.003 133.833 143.43C130.66 145.857 126.88 147.817 122.493 149.31C118.107 150.803 113.347 151.923 108.213 152.67C103.173 153.51 97.9 154.023 92.3934 154.21C86.98 154.49 81.5667 154.63 76.1534 154.63C73.7267 154.63 72.0934 154.21 71.2534 153.37C70.5067 152.623 70.0867 150.897 69.9934 148.19L67.1934 55.65ZM86.9334 138.11C100.467 138.11 110.453 136.803 116.893 134.19C123.333 131.483 126.46 127.283 126.273 121.59C126.087 118.23 124.967 115.617 122.913 113.75C120.953 111.79 118.2 110.343 114.653 109.41C111.2 108.477 107.047 108.057 102.193 108.15C97.34 108.15 92.02 108.43 86.2334 108.99L86.9334 138.11ZM85.5334 93.87C90.8534 93.7767 95.6134 93.4967 99.8134 93.03C104.107 92.5633 107.7 91.7233 110.593 90.51C113.487 89.2967 115.68 87.6633 117.173 85.61C118.76 83.4633 119.553 80.71 119.553 77.35C119.553 71.19 116.567 66.85 110.593 64.33C104.713 61.7167 96.1267 61.11 84.8334 62.51L85.5334 93.87Z"/>
</mask>
<path d="M67.1934 55.65C67.1 53.41 67.2867 51.9633 67.7534 51.31C68.3134 50.5633 69.5734 49.9567 71.5334 49.49C73.7734 49.0233 75.8267 48.65 77.6934 48.37C79.56 47.9967 81.3334 47.7167 83.0134 47.53C84.7867 47.3433 86.5134 47.2033 88.1934 47.11C89.8734 47.0167 91.6467 46.9233 93.5134 46.83C98.8334 46.6433 104.013 46.97 109.053 47.81C114.093 48.5567 118.62 50.0033 122.633 52.15C126.647 54.2033 129.913 57.05 132.433 60.69C135.047 64.2367 136.587 68.7167 137.053 74.13C137.333 78.33 136.773 82.25 135.373 85.89C133.973 89.4367 131.267 92.3767 127.253 94.71C129.867 95.6433 132.2 97.0433 134.253 98.91C136.307 100.683 138.033 102.783 139.433 105.21C140.927 107.543 142.047 110.11 142.793 112.91C143.54 115.71 143.96 118.603 144.053 121.59C144.147 126.537 143.26 130.83 141.393 134.47C139.62 138.017 137.1 141.003 133.833 143.43C130.66 145.857 126.88 147.817 122.493 149.31C118.107 150.803 113.347 151.923 108.213 152.67C103.173 153.51 97.9 154.023 92.3934 154.21C86.98 154.49 81.5667 154.63 76.1534 154.63C73.7267 154.63 72.0934 154.21 71.2534 153.37C70.5067 152.623 70.0867 150.897 69.9934 148.19L67.1934 55.65ZM86.9334 138.11C100.467 138.11 110.453 136.803 116.893 134.19C123.333 131.483 126.46 127.283 126.273 121.59C126.087 118.23 124.967 115.617 122.913 113.75C120.953 111.79 118.2 110.343 114.653 109.41C111.2 108.477 107.047 108.057 102.193 108.15C97.34 108.15 92.02 108.43 86.2334 108.99L86.9334 138.11ZM85.5334 93.87C90.8534 93.7767 95.6134 93.4967 99.8134 93.03C104.107 92.5633 107.7 91.7233 110.593 90.51C113.487 89.2967 115.68 87.6633 117.173 85.61C118.76 83.4633 119.553 80.71 119.553 77.35C119.553 71.19 116.567 66.85 110.593 64.33C104.713 61.7167 96.1267 61.11 84.8334 62.51L85.5334 93.87Z" fill="white"/>
<path d="M67.1934 55.65L68.193 55.6198L68.1925 55.6084L67.1934 55.65ZM67.7534 51.31L66.9534 50.71L66.9464 50.7193L66.9396 50.7288L67.7534 51.31ZM71.5334 49.49L71.3294 48.511L71.3155 48.5139L71.3018 48.5172L71.5334 49.49ZM77.6934 48.37L77.8417 49.3589L77.8657 49.3553L77.8895 49.3506L77.6934 48.37ZM83.0134 47.53L82.9087 46.5355L82.9029 46.5361L83.0134 47.53ZM88.1934 47.11L88.2488 48.1085L88.2488 48.1085L88.1934 47.11ZM93.5134 46.83L93.4783 45.8306L93.4709 45.8309L93.4634 45.8312L93.5134 46.83ZM109.053 47.81L108.889 48.7964L108.898 48.7979L108.907 48.7992L109.053 47.81ZM122.633 52.15L122.162 53.0318L122.17 53.0361L122.178 53.0402L122.633 52.15ZM132.433 60.69L131.611 61.2592L131.62 61.2713L131.628 61.2832L132.433 60.69ZM137.053 74.13L138.051 74.0635L138.051 74.0538L138.05 74.0441L137.053 74.13ZM135.373 85.89L136.304 86.2572L136.307 86.249L135.373 85.89ZM127.253 94.71L126.751 93.8455L124.889 94.9276L126.917 95.6517L127.253 94.71ZM134.253 98.91L133.581 99.6499L133.59 99.6585L133.6 99.6668L134.253 98.91ZM139.433 105.21L138.567 105.71L138.579 105.73L138.591 105.749L139.433 105.21ZM142.793 112.91L143.76 112.652L142.793 112.91ZM144.053 121.59L145.053 121.571L145.053 121.559L144.053 121.59ZM141.393 134.47L140.504 134.014L140.499 134.023L141.393 134.47ZM133.833 143.43L133.237 142.627L133.226 142.636L133.833 143.43ZM122.493 149.31L122.816 150.257L122.493 149.31ZM108.213 152.67L108.069 151.68L108.059 151.682L108.049 151.684L108.213 152.67ZM92.3934 154.21L92.3595 153.211L92.3506 153.211L92.3417 153.211L92.3934 154.21ZM71.2534 153.37L71.9605 152.663L71.2534 153.37ZM69.9934 148.19L68.9938 148.22L68.994 148.224L69.9934 148.19ZM86.9334 138.11L85.9337 138.134L85.9571 139.11H86.9334V138.11ZM116.893 134.19L117.269 135.117L117.281 135.112L116.893 134.19ZM126.273 121.59L127.273 121.557L127.272 121.546L127.272 121.535L126.273 121.59ZM122.913 113.75L122.206 114.457L122.223 114.474L122.241 114.49L122.913 113.75ZM114.653 109.41L114.392 110.375L114.399 110.377L114.653 109.41ZM102.193 108.15V109.15H102.203L102.213 109.15L102.193 108.15ZM86.2334 108.99L86.1371 107.995L85.2113 108.084L85.2337 109.014L86.2334 108.99ZM85.5334 93.87L84.5336 93.8923L84.5558 94.8873L85.5509 94.8698L85.5334 93.87ZM99.8134 93.03L99.7053 92.0358L99.7029 92.0361L99.8134 93.03ZM110.593 90.51L110.98 91.4322H110.98L110.593 90.51ZM117.173 85.61L116.369 85.0156L116.365 85.0218L117.173 85.61ZM110.593 64.33L110.187 65.2438L110.196 65.2477L110.205 65.2514L110.593 64.33ZM84.8334 62.51L84.7104 61.5176L83.8135 61.6288L83.8336 62.5323L84.8334 62.51ZM67.1934 55.65L68.1925 55.6084C68.1471 54.5184 68.1718 53.6587 68.2552 53.013C68.342 52.3398 68.4792 52.0143 68.5671 51.8912L67.7534 51.31L66.9396 50.7288C66.5609 51.259 66.3714 51.9836 66.2716 52.757C66.1682 53.558 66.1463 54.5416 66.1942 55.6916L67.1934 55.65ZM67.7534 51.31L68.5534 51.91C68.7012 51.7129 69.0005 51.4616 69.5522 51.196C70.0961 50.9341 70.8271 50.6861 71.765 50.4628L71.5334 49.49L71.3018 48.5172C70.2797 48.7605 69.4006 49.0492 68.6846 49.394C67.9762 49.735 67.3656 50.1604 66.9534 50.71L67.7534 51.31ZM71.5334 49.49L71.7373 50.469C73.9626 50.0054 75.9971 49.6356 77.8417 49.3589L77.6934 48.37L77.545 47.3811C75.6563 47.6644 73.5842 48.0413 71.3294 48.511L71.5334 49.49ZM77.6934 48.37L77.8895 49.3506C79.7313 48.9822 81.4759 48.707 83.1238 48.5239L83.0134 47.53L82.9029 46.5361C81.1909 46.7263 79.3888 47.0111 77.4973 47.3894L77.6934 48.37ZM83.0134 47.53L83.1181 48.5245C84.876 48.3395 86.5862 48.2008 88.2488 48.1085L88.1934 47.11L88.1379 46.1115C86.4405 46.2058 84.6974 46.3472 82.9087 46.5355L83.0134 47.53ZM88.1934 47.11L88.2488 48.1085C89.9268 48.0152 91.6983 47.922 93.5633 47.8287L93.5134 46.83L93.4634 45.8312C91.5951 45.9247 89.8199 46.0181 88.1379 46.1115L88.1934 47.11ZM93.5134 46.83L93.5484 47.8294C98.8045 47.645 103.918 47.9678 108.889 48.7964L109.053 47.81L109.218 46.8236C104.109 45.9722 98.8623 45.6417 93.4783 45.8306L93.5134 46.83ZM109.053 47.81L108.907 48.7992C113.847 49.531 118.261 50.9454 122.162 53.0318L122.633 52.15L123.105 51.2682C118.979 49.0612 114.34 47.5823 109.2 46.8208L109.053 47.81ZM122.633 52.15L122.178 53.0402C126.047 55.0199 129.187 57.7574 131.611 61.2592L132.433 60.69L133.256 60.1208C130.64 56.3426 127.246 53.3868 123.089 51.2597L122.633 52.15ZM132.433 60.69L131.628 61.2832C134.11 64.6505 135.603 68.9433 136.057 74.2159L137.053 74.13L138.05 74.0441C137.571 68.49 135.984 63.8228 133.238 60.0968L132.433 60.69ZM137.053 74.13L136.056 74.1965C136.327 78.2634 135.784 82.037 134.44 85.531L135.373 85.89L136.307 86.249C137.763 82.463 138.34 78.3966 138.051 74.0635L137.053 74.13ZM135.373 85.89L134.443 85.5228C133.143 88.8179 130.613 91.5998 126.751 93.8455L127.253 94.71L127.756 95.5745C131.92 93.1535 134.804 90.0554 136.304 86.2572L135.373 85.89ZM127.253 94.71L126.917 95.6517C129.406 96.5407 131.625 97.8721 133.581 99.6499L134.253 98.91L134.926 98.1701C132.775 96.2146 130.327 94.746 127.59 93.7683L127.253 94.71ZM134.253 98.91L133.6 99.6668C135.566 101.365 137.221 103.377 138.567 105.71L139.433 105.21L140.3 104.71C138.845 102.19 137.048 100.002 134.907 98.1532L134.253 98.91ZM139.433 105.21L138.591 105.749C140.026 107.992 141.106 110.463 141.827 113.168L142.793 112.91L143.76 112.652C142.988 109.757 141.827 107.095 140.276 104.671L139.433 105.21ZM142.793 112.91L141.827 113.168C142.553 115.891 142.963 118.709 143.054 121.621L144.053 121.59L145.053 121.559C144.957 118.498 144.527 115.529 143.76 112.652L142.793 112.91ZM144.053 121.59L143.054 121.609C143.144 126.425 142.281 130.548 140.504 134.014L141.393 134.47L142.283 134.926C144.239 131.112 145.149 126.649 145.053 121.571L144.053 121.59ZM141.393 134.47L140.499 134.023C138.798 137.425 136.381 140.292 133.237 142.627L133.833 143.43L134.43 144.233C137.819 141.715 140.442 138.608 142.288 134.917L141.393 134.47ZM133.833 143.43L133.226 142.636C130.151 144.987 126.471 146.899 122.171 148.363L122.493 149.31L122.816 150.257C127.289 148.734 131.169 146.727 134.441 144.224L133.833 143.43ZM122.493 149.31L122.171 148.363C117.849 149.835 113.149 150.942 108.069 151.68L108.213 152.67L108.357 153.66C113.544 152.905 118.365 151.772 122.816 150.257L122.493 149.31ZM108.213 152.67L108.049 151.684C103.055 152.516 97.8258 153.025 92.3595 153.211L92.3934 154.21L92.4273 155.209C97.9743 155.021 103.291 154.504 108.378 153.656L108.213 152.67ZM92.3934 154.21L92.3417 153.211C86.9456 153.49 81.5495 153.63 76.1534 153.63V154.63V155.63C81.584 155.63 87.0145 155.49 92.445 155.209L92.3934 154.21ZM76.1534 154.63V153.63C73.7545 153.63 72.494 153.196 71.9605 152.663L71.2534 153.37L70.5463 154.077C71.6928 155.224 73.6989 155.63 76.1534 155.63V154.63ZM71.2534 153.37L71.9605 152.663C71.7777 152.48 71.543 152.072 71.35 151.279C71.1622 150.506 71.0382 149.472 70.9928 148.156L69.9934 148.19L68.994 148.224C69.0419 149.614 69.1746 150.797 69.4067 151.751C69.6338 152.685 69.9824 153.513 70.5463 154.077L71.2534 153.37ZM69.9934 148.19L70.9929 148.16L68.1929 55.6198L67.1934 55.65L66.1938 55.6802L68.9938 148.22L69.9934 148.19ZM86.9334 138.11V139.11C100.497 139.11 110.644 137.805 117.269 135.117L116.893 134.19L116.517 133.263C110.263 135.801 100.437 137.11 86.9334 137.11V138.11ZM116.893 134.19L117.281 135.112C120.612 133.712 123.171 131.891 124.871 129.607C126.581 127.309 127.373 124.609 127.273 121.557L126.273 121.59L125.274 121.623C125.361 124.264 124.682 126.511 123.266 128.413C121.84 130.329 119.614 131.962 116.506 133.268L116.893 134.19ZM126.273 121.59L127.272 121.535C127.074 117.972 125.874 115.09 123.586 113.01L122.913 113.75L122.241 114.49C124.06 116.144 125.1 118.488 125.275 121.645L126.273 121.59ZM122.913 113.75L123.62 113.043C121.501 110.924 118.572 109.407 114.908 108.443L114.653 109.41L114.399 110.377C117.828 111.279 120.406 112.656 122.206 114.457L122.913 113.75ZM114.653 109.41L114.914 108.445C111.344 107.48 107.091 107.056 102.174 107.15L102.193 108.15L102.213 109.15C107.003 109.058 111.056 109.474 114.392 110.375L114.653 109.41ZM102.193 108.15V107.15C97.3023 107.15 91.9497 107.432 86.1371 107.995L86.2334 108.99L86.3297 109.985C92.0904 109.428 97.3777 109.15 102.193 109.15V108.15ZM86.2334 108.99L85.2337 109.014L85.9337 138.134L86.9334 138.11L87.9331 138.086L87.2331 108.966L86.2334 108.99ZM85.5334 93.87L85.5509 94.8698C90.8944 94.7761 95.6863 94.4947 99.9238 94.0239L99.8134 93.03L99.7029 92.0361C95.5405 92.4986 90.8123 92.7772 85.5158 92.8702L85.5334 93.87ZM99.8134 93.03L99.9214 94.0241C104.277 93.5507 107.971 92.6939 110.98 91.4322L110.593 90.51L110.207 89.5878C107.429 90.7528 103.936 91.576 99.7053 92.0359L99.8134 93.03ZM110.593 90.51L110.98 91.4322C114.002 90.1648 116.359 88.4305 117.982 86.1982L117.173 85.61L116.365 85.0218C115.002 86.8961 112.971 88.4286 110.207 89.5878L110.593 90.51ZM117.173 85.61L117.978 86.2044C119.721 83.8455 120.553 80.868 120.553 77.35H119.553H118.553C118.553 80.552 117.799 83.0811 116.369 85.0156L117.173 85.61ZM119.553 77.35H120.553C120.553 74.1027 119.764 71.2717 118.137 68.9081C116.513 66.548 114.104 64.7257 110.982 63.4086L110.593 64.33L110.205 65.2514C113.056 66.4543 115.127 68.0619 116.49 70.0419C117.85 72.0183 118.553 74.4373 118.553 77.35H119.553ZM110.593 64.33L111 63.4162C104.87 60.6919 96.0638 60.1101 84.7104 61.5176L84.8334 62.51L84.9564 63.5024C96.1896 62.1098 104.557 62.7414 110.187 65.2438L110.593 64.33ZM84.8334 62.51L83.8336 62.5323L84.5336 93.8923L85.5334 93.87L86.5331 93.8477L85.8331 62.4877L84.8334 62.51Z" fill="white" mask="url(#path-2-outside-1_87_61)"/>
</svg>
