<svg width="200" height="200" viewBox="0 0 200 200" fill="none" xmlns="http://www.w3.org/2000/svg">
<circle cx="100" cy="100" r="99.5" fill="black" stroke="white"/>
<circle cx="99.9994" cy="100.001" r="66.6667" fill="white"/>
<ellipse cx="100.019" cy="104.162" rx="39.9816" ry="29.1667" fill="black"/>
<path d="M68.9815 72.3888C70.3792 66.2261 84.4402 77.6015 84.5448 77.8117C84.6494 78.022 68.5406 94.0848 67.9333 87.9298C67.326 81.7749 67.5838 78.5515 68.9815 72.3888Z" fill="black"/>
<path d="M130.359 72.3556C128.962 66.1929 114.901 77.5683 114.796 77.7785C114.691 77.9888 130.8 94.0516 131.408 87.8966C132.015 81.7417 131.757 78.5183 130.359 72.3556Z" fill="black"/>
<path d="M120 169.636C120 184.138 115.464 179.184 100 179.184C84.5363 179.184 80.0002 184.138 80.0002 169.636C80.0002 155.133 84.5363 126.667 100 126.667C115.464 126.667 120 155.133 120 169.636Z" fill="black"/>
<path d="M55.4641 141.513C55.6217 140.845 55.8575 139.819 56.1933 138.733C56.4683 137.844 57.1204 137.447 57.8686 136.915C59.7069 135.608 61.1841 135.748 63.1775 135.728C64.1217 135.718 65.1317 136.492 66.1044 137.305C66.6906 137.795 67.1126 138.312 67.4094 138.787C67.7174 139.279 67.8235 140.049 68.0024 140.564C68.3578 141.586 68.6149 143.288 68.7132 143.782C68.8494 144.466 68.9703 145.184 69.5994 147.448C69.8775 148.449 70.4276 149.522 70.8647 150.279C71.1773 150.82 71.8493 151.423 72.6206 152.016C73.1958 152.459 73.9036 152.648 75.4213 153.378C76.1574 153.732 77.7636 153.716 79.1551 153.618C80.6173 153.515 81.5643 153.361 82.8272 152.948C83.8192 152.624 85.9384 151.591 87.5076 150.58C87.7665 150.4 87.962 150.283 88.1018 150.164C88.2416 150.045 88.3198 149.928 88.4003 149.807" stroke="black" stroke-width="5" stroke-linecap="round"/>
</svg>
