<svg width="80" height="81" viewBox="0 0 80 81" fill="none" xmlns="http://www.w3.org/2000/svg">
<circle cx="40" cy="40.6074" r="39.5" fill="black" stroke="white"/>
<mask id="path-2-inside-1_89_105" fill="white">
<rect x="18.6667" y="19.2769" width="37.3333" height="42.6667" rx="1"/>
</mask>
<rect x="18.6667" y="19.2769" width="37.3333" height="42.6667" rx="1" fill="black" stroke="white" stroke-width="4" mask="url(#path-2-inside-1_89_105)"/>
<line x1="24.8891" y1="31.0776" x2="49.778" y2="31.0776" stroke="white" stroke-width="2"/>
<line x1="24.8891" y1="39.6104" x2="49.778" y2="39.6104" stroke="white" stroke-width="2"/>
<line x1="24.8891" y1="48.144" x2="49.778" y2="48.144" stroke="white" stroke-width="2"/>
<path d="M70.7399 24.7368L51.2768 36.5858L48.663 31.6804L67.7121 20.0159L70.7399 24.7368Z" fill="white" stroke="black"/>
<path d="M43.3765 37.4251C43.3276 37.3442 43.2993 37.2218 43.345 37.0164C43.3922 36.8048 43.5111 36.5421 43.7065 36.2361C44.0969 35.6249 44.7268 34.9409 45.4159 34.2881C46.1 33.64 46.8198 33.0435 47.3706 32.608C47.5482 32.4676 47.7093 32.3462 47.8438 32.2437L50.4254 36.8472C50.2737 36.8915 50.0975 36.9437 49.9005 36.9979C49.222 37.1848 48.3097 37.4148 47.3681 37.5894C46.4208 37.765 45.4699 37.8798 44.7047 37.8491C44.3218 37.8337 44.01 37.7822 43.7776 37.699C43.5461 37.6161 43.4316 37.516 43.3765 37.4251Z" fill="white" stroke="black"/>
</svg>
