<svg width="52" height="42" viewBox="0 0 52 42" fill="none" xmlns="http://www.w3.org/2000/svg">
<path d="M44.0124 18.8467C44.0903 18.7299 44.1235 18.59 44.1091 18.4515C43.6196 13.9127 42.1353 11.4608 41.2993 10.392C38.1545 6.36518 36.6456 5.87913 35.3894 5.27914C34.4697 4.84069 31.7523 3.95368 29.8175 3.69551C28.388 3.50369 27.6415 3.46619 26.3406 3.42725H4.48294C4.41796 3.42725 4.35876 3.46763 4.33566 3.52821L1.89693 9.76897C1.85939 9.86272 1.93014 9.96513 2.03121 9.96513H4.10753C4.23603 9.96513 4.35443 9.89878 4.42085 9.78917C4.66631 9.38244 5.42147 8.33678 7.13537 7.39353C7.96849 6.93488 8.90558 6.69546 9.8571 6.69546H14.375C14.4299 6.69546 14.4747 6.74018 14.4747 6.79498V32.3898C14.4747 33.8724 12.8185 34.0599 12.4518 34.0845C12.4113 34.0873 12.3796 34.1205 12.3796 34.1609V35.358C12.3796 35.358 12.3854 35.3695 12.3911 35.3695H22.8521C22.8521 35.3695 22.8637 35.3638 22.8637 35.358V34.1609C22.8637 34.1205 22.8319 34.0859 22.7915 34.0845C22.4233 34.0614 20.7686 33.8739 20.7686 32.3898V6.75171C20.7686 6.71998 20.7931 6.69546 20.8249 6.69546H26.2048C27.4394 6.69546 28.6725 6.80796 29.881 7.05892C31.0737 7.30699 32.1046 7.75122 33.0359 8.35986C35.2927 9.86272 36.959 12.0665 37.5639 14.2732C38.0592 16.0804 38.3956 17.2487 38.4057 18.9405C38.514 21.013 38.1704 25.4654 37.9755 26.1418C37.9755 26.1461 37.9798 26.149 37.9841 26.1461C39.0569 25.0933 40.1933 23.8716 41.3397 22.4683C42.3663 21.2106 43.2514 19.9904 44.0109 18.8467H44.0124Z" fill="#34D399"/>
<path d="M36.5763 1.3149C37.729 1.09268 45.2353 -0.348141 48.9503 3.96822C51.1302 6.49905 51.1563 10.0222 51.1534 10.4399C51.1462 11.745 50.8709 12.8556 50.6515 13.7397C50.1447 15.7791 49.4135 17.2219 48.8272 18.3598C48.5398 18.9167 47.6738 20.5536 46.171 22.5278C45.8978 22.8868 45.3655 23.5667 44.1124 24.895C43.1532 35.6357 36.5799 37.4915 33.3331 38.6538C30.6027 39.6316 25.6482 39.3821 24.1437 39.2768C23.8492 39.2567 23.5546 39.299 23.2774 39.4028C22.4991 39.6941 20.7649 40.326 19.1319 40.8149C14.7933 42.1128 11.2919 41.9933 9.12607 41.7583C7.63611 41.5967 6.38999 41.3959 5.004 40.685C2.03507 39.164 0.85651 36.3817 0.670995 35.9243C0.587257 35.718 0.356061 35.1249 0.188573 34.3159C0.0427403 33.6106 -0.187576 32.1046 0.271581 29.895C1.27365 25.0806 4.70615 19.8149 4.70615 19.8149C7.21981 15.9599 9.79996 13.3957 11.1876 12.1567C11.895 11.5251 12.6042 10.8918 13.3116 10.2602L13.3653 10.2827V13.1831C13.3653 13.2422 13.3438 13.3005 13.3048 13.3452C13.1489 13.5239 13.1168 13.5554 12.7228 13.9389C11.7698 14.8663 10.5392 16.137 9.26572 17.7827C6.96708 20.7523 5.77914 23.2766 5.52646 23.8217C4.57787 25.8726 3.79764 27.5556 3.60557 29.977C3.48861 31.4496 3.34181 33.3148 4.41318 35.2446C5.42968 37.0733 6.97928 37.9473 7.49619 38.2299C9.37026 39.2538 11.0926 39.2153 13.8272 39.1518C14.7037 39.1316 16.7111 39.0348 19.2032 38.393C20.7191 38.0022 21.9663 37.5258 22.8946 37.1206C22.8946 37.1206 23.6747 36.8484 23.9649 35.8764V12.6772C23.9649 12.4897 23.9456 12.3008 23.8937 12.1206C23.6843 11.3879 23.1851 11.2279 22.9786 11.1919C22.9252 11.1832 22.8878 11.1368 22.8878 11.0835V9.88326C22.8879 9.82574 22.9338 9.77992 22.9913 9.77974H29.6944V36.3999C29.6945 36.4647 29.7467 36.517 29.8116 36.5141C30.3944 36.4923 32.9054 36.066 34.5899 34.5161C35.7638 33.4362 36.2861 32.6746 36.6368 31.9633C35.3097 32.9462 33.4311 34.1779 30.9728 35.3178C30.9194 35.3423 30.8566 35.3037 30.8565 35.2446V33.2358L30.8585 33.2368C30.8585 33.1373 30.9061 33.045 30.9884 32.9887C31.6655 32.5214 32.5609 31.884 33.586 31.0952C34.7989 30.162 36.9996 28.4584 39.4483 25.9633C40.6756 24.713 42.3154 23.0269 44.0724 20.4975C45.4614 18.4957 46.7557 16.5974 47.5138 13.7778C48.2718 10.9554 47.919 9.33987 47.7501 8.71529C47.3285 7.1605 46.5432 6.19966 46.3858 6.01216C45.2511 4.65665 43.8783 4.14132 43.0567 3.84419C41.5133 3.28605 40.2148 3.30103 39.2618 3.31978C37.8006 3.35007 36.5973 3.62658 35.7569 3.88619C35.633 3.92356 35.5034 3.92614 35.378 3.89595L30.9112 2.81294C30.8974 2.80972 30.8973 2.79008 30.9112 2.7856C36.4616 1.3361 36.5763 1.3149 36.5763 1.3149Z" fill="#34D399"/>
</svg>
